<svg xmlns="http://www.w3.org/2000/svg" height="100" width="100" viewBox="0 0 33 33" id="qr-code-svg"><path fill="#ffffff" d="M0,0 h33v33H0z" shape-rendering="crispEdges"/><path fill="#000000" d="M0 0h7v1H0zM8 0h1v1H8zM12 0h2v1H12zM15 0h2v1H15zM18 0h7v1H18zM26,0 h7v1H26zM0 1h1v1H0zM6 1h1v1H6zM8 1h2v1H8zM12 1h1v1H12zM15 1h1v1H15zM17 1h3v1H17zM23 1h1v1H23zM26 1h1v1H26zM32,1 h1v1H32zM0 2h1v1H0zM2 2h3v1H2zM6 2h1v1H6zM9 2h1v1H9zM11 2h8v1H11zM20 2h1v1H20zM22 2h1v1H22zM24 2h1v1H24zM26 2h1v1H26zM28 2h3v1H28zM32,2 h1v1H32zM0 3h1v1H0zM2 3h3v1H2zM6 3h1v1H6zM8 3h5v1H8zM14 3h1v1H14zM16 3h1v1H16zM18 3h1v1H18zM22 3h1v1H22zM26 3h1v1H26zM28 3h3v1H28zM32,3 h1v1H32zM0 4h1v1H0zM2 4h3v1H2zM6 4h1v1H6zM8 4h1v1H8zM10 4h2v1H10zM13 4h2v1H13zM16 4h1v1H16zM18 4h1v1H18zM20 4h1v1H20zM23 4h2v1H23zM26 4h1v1H26zM28 4h3v1H28zM32,4 h1v1H32zM0 5h1v1H0zM6 5h1v1H6zM8 5h2v1H8zM12 5h2v1H12zM15 5h2v1H15zM18 5h1v1H18zM21 5h2v1H21zM26 5h1v1H26zM32,5 h1v1H32zM0 6h7v1H0zM8 6h1v1H8zM10 6h1v1H10zM12 6h1v1H12zM14 6h1v1H14zM16 6h1v1H16zM18 6h1v1H18zM20 6h1v1H20zM22 6h1v1H22zM24 6h1v1H24zM26,6 h7v1H26zM9 7h4v1H9zM14 7h1v1H14zM18 7h4v1H18zM23 7h1v1H23zM3 8h1v1H3zM6 8h1v1H6zM13 8h1v1H13zM16 8h1v1H16zM18 8h2v1H18zM21 8h1v1H21zM23 8h2v1H23zM27 8h3v1H27zM31,8 h2v1H31zM3 9h3v1H3zM8 9h2v1H8zM11 9h1v1H11zM15 9h1v1H15zM17 9h1v1H17zM22 9h1v1H22zM24 9h1v1H24zM26 9h1v1H26zM29,9 h4v1H29zM5 10h4v1H5zM11 10h1v1H11zM14 10h2v1H14zM17 10h1v1H17zM19 10h1v1H19zM21 10h2v1H21zM24 10h2v1H24zM29 10h2v1H29zM32,10 h1v1H32zM2 11h1v1H2zM4 11h2v1H4zM8 11h4v1H8zM13 11h1v1H13zM20 11h5v1H20zM26 11h1v1H26zM29 11h1v1H29zM31 11h1v1H31zM0 12h2v1H0zM6 12h1v1H6zM9 12h2v1H9zM12 12h2v1H12zM15 12h2v1H15zM18 12h1v1H18zM22 12h1v1H22zM24 12h1v1H24zM26 12h1v1H26zM29 12h1v1H29zM32,12 h1v1H32zM3 13h3v1H3zM7 13h3v1H7zM14 13h1v1H14zM16 13h3v1H16zM22 13h1v1H22zM24 13h1v1H24zM26 13h1v1H26zM28 13h1v1H28zM32,13 h1v1H32zM0 14h4v1H0zM6 14h1v1H6zM10 14h1v1H10zM12 14h3v1H12zM17 14h2v1H17zM20 14h2v1H20zM23 14h1v1H23zM30 14h2v1H30zM1 15h1v1H1zM3 15h2v1H3zM7 15h10v1H7zM21 15h3v1H21zM25 15h2v1H25zM28 15h1v1H28zM1 16h1v1H1zM5 16h3v1H5zM9 16h3v1H9zM15 16h2v1H15zM18 16h1v1H18zM20 16h2v1H20zM25 16h4v1H25zM31,16 h2v1H31zM0 17h1v1H0zM3 17h1v1H3zM5 17h1v1H5zM8 17h2v1H8zM12 17h1v1H12zM16 17h2v1H16zM20 17h2v1H20zM23 17h1v1H23zM25 17h1v1H25zM30 17h2v1H30zM0 18h2v1H0zM6 18h1v1H6zM8 18h1v1H8zM10 18h1v1H10zM12 18h2v1H12zM16 18h1v1H16zM18 18h1v1H18zM22 18h1v1H22zM26 18h3v1H26zM30,18 h3v1H30zM1 19h1v1H1zM5 19h1v1H5zM9 19h3v1H9zM16 19h2v1H16zM19 19h3v1H19zM25 19h1v1H25zM28 19h1v1H28zM31,19 h2v1H31zM0 20h1v1H0zM4 20h1v1H4zM6 20h2v1H6zM13 20h2v1H13zM16 20h1v1H16zM19 20h3v1H19zM23 20h1v1H23zM25 20h1v1H25zM27 20h1v1H27zM3 21h1v1H3zM5 21h1v1H5zM7 21h2v1H7zM10 21h1v1H10zM12 21h3v1H12zM16 21h3v1H16zM21 21h1v1H21zM24 21h1v1H24zM26 21h1v1H26zM30,21 h3v1H30zM0 22h4v1H0zM5 22h2v1H5zM10 22h1v1H10zM12 22h1v1H12zM14 22h2v1H14zM17 22h1v1H17zM19 22h3v1H19zM24 22h3v1H24zM29 22h1v1H29zM32,22 h1v1H32zM1 23h4v1H1zM7 23h1v1H7zM12 23h1v1H12zM15 23h1v1H15zM17 23h2v1H17zM21 23h1v1H21zM25 23h2v1H25zM29 23h1v1H29zM31,23 h2v1H31zM0 24h1v1H0zM2 24h1v1H2zM4 24h1v1H4zM6 24h2v1H6zM9 24h1v1H9zM14 24h2v1H14zM19 24h3v1H19zM24 24h5v1H24zM31 24h1v1H31zM8 25h1v1H8zM10 25h1v1H10zM12 25h1v1H12zM14 25h2v1H14zM17 25h3v1H17zM22 25h1v1H22zM24 25h1v1H24zM28 25h3v1H28zM32,25 h1v1H32zM0 26h7v1H0zM10 26h2v1H10zM14 26h1v1H14zM16 26h3v1H16zM20 26h2v1H20zM24 26h1v1H24zM26 26h1v1H26zM28 26h2v1H28zM31 26h1v1H31zM0 27h1v1H0zM6 27h1v1H6zM10 27h1v1H10zM12 27h3v1H12zM17 27h2v1H17zM20 27h1v1H20zM24 27h1v1H24zM28 27h1v1H28zM32,27 h1v1H32zM0 28h1v1H0zM2 28h3v1H2zM6 28h1v1H6zM9 28h1v1H9zM11 28h1v1H11zM14 28h4v1H14zM20 28h1v1H20zM22 28h1v1H22zM24 28h5v1H24zM0 29h1v1H0zM2 29h3v1H2zM6 29h1v1H6zM8 29h2v1H8zM11 29h3v1H11zM19 29h1v1H19zM21 29h1v1H21zM24 29h1v1H24zM26 29h1v1H26zM28 29h4v1H28zM0 30h1v1H0zM2 30h3v1H2zM6 30h1v1H6zM11 30h2v1H11zM15 30h2v1H15zM18 30h3v1H18zM23 30h1v1H23zM25 30h1v1H25zM27 30h2v1H27zM30 30h1v1H30zM32,30 h1v1H32zM0 31h1v1H0zM6 31h1v1H6zM9 31h1v1H9zM11 31h1v1H11zM13 31h3v1H13zM19 31h1v1H19zM22 31h8v1H22zM0 32h7v1H0zM10 32h2v1H10zM14 32h3v1H14zM20 32h3v1H20zM24 32h2v1H24zM27 32h3v1H27zM31 32h1v1H31z" shape-rendering="crispEdges"/></svg>