<svg xmlns="http://www.w3.org/2000/svg" height="100" width="100" viewBox="0 0 37 37" id="qr-code-svg"><path fill="#ffffff" d="M0,0 h37v37H0z" shape-rendering="crispEdges"/><path fill="#000000" d="M0 0h7v1H0zM8 0h2v1H8zM11 0h4v1H11zM16 0h1v1H16zM21 0h2v1H21zM25 0h4v1H25zM30,0 h7v1H30zM0 1h1v1H0zM6 1h1v1H6zM11 1h2v1H11zM14 1h1v1H14zM16 1h3v1H16zM22 1h1v1H22zM25 1h4v1H25zM30 1h1v1H30zM36,1 h1v1H36zM0 2h1v1H0zM2 2h3v1H2zM6 2h1v1H6zM8 2h1v1H8zM10 2h2v1H10zM16 2h2v1H16zM19 2h1v1H19zM27 2h2v1H27zM30 2h1v1H30zM32 2h3v1H32zM36,2 h1v1H36zM0 3h1v1H0zM2 3h3v1H2zM6 3h1v1H6zM8 3h2v1H8zM12 3h1v1H12zM17 3h2v1H17zM20 3h1v1H20zM22 3h1v1H22zM26 3h2v1H26zM30 3h1v1H30zM32 3h3v1H32zM36,3 h1v1H36zM0 4h1v1H0zM2 4h3v1H2zM6 4h1v1H6zM9 4h1v1H9zM11 4h1v1H11zM14 4h2v1H14zM17 4h1v1H17zM20 4h2v1H20zM23 4h1v1H23zM27 4h1v1H27zM30 4h1v1H30zM32 4h3v1H32zM36,4 h1v1H36zM0 5h1v1H0zM6 5h1v1H6zM8 5h2v1H8zM11 5h1v1H11zM14 5h3v1H14zM18 5h1v1H18zM22 5h1v1H22zM24 5h1v1H24zM27 5h2v1H27zM30 5h1v1H30zM36,5 h1v1H36zM0 6h7v1H0zM8 6h1v1H8zM10 6h1v1H10zM12 6h1v1H12zM14 6h1v1H14zM16 6h1v1H16zM18 6h1v1H18zM20 6h1v1H20zM22 6h1v1H22zM24 6h1v1H24zM26 6h1v1H26zM28 6h1v1H28zM30,6 h7v1H30zM8 7h1v1H8zM13 7h2v1H13zM17 7h2v1H17zM21 7h2v1H21zM25 7h1v1H25zM1 8h1v1H1zM3 8h1v1H3zM5 8h4v1H5zM10 8h2v1H10zM13 8h2v1H13zM17 8h1v1H17zM21 8h1v1H21zM23 8h2v1H23zM26 8h2v1H26zM29 8h3v1H29zM33 8h2v1H33zM36,8 h1v1H36zM4 9h2v1H4zM7 9h5v1H7zM13 9h2v1H13zM16 9h2v1H16zM19 9h1v1H19zM21 9h1v1H21zM24 9h1v1H24zM27 9h1v1H27zM29 9h1v1H29zM32 9h2v1H32zM36,9 h1v1H36zM2 10h1v1H2zM4 10h1v1H4zM6 10h2v1H6zM10 10h1v1H10zM12 10h2v1H12zM15 10h1v1H15zM17 10h4v1H17zM22 10h1v1H22zM28 10h1v1H28zM30 10h2v1H30zM35,10 h2v1H35zM4 11h1v1H4zM7 11h2v1H7zM14 11h1v1H14zM16 11h1v1H16zM19 11h4v1H19zM24 11h2v1H24zM27 11h1v1H27zM35 11h1v1H35zM0 12h4v1H0zM5 12h3v1H5zM9 12h1v1H9zM11 12h2v1H11zM16 12h1v1H16zM19 12h3v1H19zM24 12h2v1H24zM28 12h3v1H28zM33 12h1v1H33zM36,12 h1v1H36zM3 13h2v1H3zM8 13h1v1H8zM10 13h1v1H10zM14 13h1v1H14zM17 13h1v1H17zM21 13h2v1H21zM24 13h2v1H24zM28 13h1v1H28zM30 13h2v1H30zM33 13h1v1H33zM36,13 h1v1H36zM0 14h1v1H0zM4 14h4v1H4zM10 14h2v1H10zM13 14h1v1H13zM18 14h2v1H18zM22 14h2v1H22zM26 14h1v1H26zM30 14h1v1H30zM32 14h1v1H32zM34 14h1v1H34zM36,14 h1v1H36zM2 15h1v1H2zM4 15h1v1H4zM7 15h2v1H7zM10 15h2v1H10zM14 15h1v1H14zM16 15h1v1H16zM18 15h5v1H18zM24 15h5v1H24zM31 15h1v1H31zM35 15h1v1H35zM2 16h2v1H2zM5 16h7v1H5zM13 16h4v1H13zM20 16h1v1H20zM23 16h1v1H23zM27 16h5v1H27zM33 16h2v1H33zM36,16 h1v1H36zM0 17h3v1H0zM7 17h4v1H7zM13 17h4v1H13zM19 17h2v1H19zM22 17h1v1H22zM25 17h2v1H25zM29 17h2v1H29zM32 17h2v1H32zM36,17 h1v1H36zM0 18h2v1H0zM5 18h3v1H5zM9 18h1v1H9zM14 18h4v1H14zM20 18h1v1H20zM22 18h1v1H22zM25 18h1v1H25zM29 18h1v1H29zM35,18 h2v1H35zM2 19h2v1H2zM5 19h1v1H5zM8 19h2v1H8zM14 19h2v1H14zM17 19h1v1H17zM19 19h3v1H19zM23 19h1v1H23zM27 19h1v1H27zM30 19h1v1H30zM32 19h1v1H32zM34 19h2v1H34zM3 20h1v1H3zM6 20h3v1H6zM10 20h3v1H10zM15 20h2v1H15zM18 20h1v1H18zM21 20h8v1H21zM30 20h3v1H30zM35,20 h2v1H35zM0 21h1v1H0zM2 21h1v1H2zM5 21h1v1H5zM7 21h1v1H7zM11 21h1v1H11zM13 21h3v1H13zM17 21h1v1H17zM19 21h1v1H19zM21 21h1v1H21zM24 21h2v1H24zM29 21h2v1H29zM33 21h1v1H33zM36,21 h1v1H36zM0 22h1v1H0zM5 22h2v1H5zM8 22h1v1H8zM10 22h2v1H10zM13 22h1v1H13zM15 22h1v1H15zM17 22h5v1H17zM24 22h3v1H24zM30,22 h7v1H30zM1 23h2v1H1zM4 23h1v1H4zM10 23h1v1H10zM12 23h1v1H12zM14 23h1v1H14zM16 23h2v1H16zM20 23h4v1H20zM25 23h1v1H25zM29 23h1v1H29zM32 23h1v1H32zM35 23h1v1H35zM3 24h2v1H3zM6 24h1v1H6zM8 24h2v1H8zM11 24h2v1H11zM14 24h1v1H14zM18 24h1v1H18zM21 24h1v1H21zM24 24h1v1H24zM26 24h3v1H26zM30 24h1v1H30zM32 24h2v1H32zM36,24 h1v1H36zM2 25h4v1H2zM8 25h1v1H8zM15 25h1v1H15zM19 25h2v1H19zM22 25h1v1H22zM24 25h1v1H24zM26 25h2v1H26zM33,25 h4v1H33zM0 26h1v1H0zM5 26h4v1H5zM10 26h1v1H10zM13 26h3v1H13zM17 26h1v1H17zM19 26h2v1H19zM23 26h3v1H23zM27 26h6v1H27zM34 26h1v1H34zM36,26 h1v1H36zM1 27h1v1H1zM10 27h1v1H10zM13 27h2v1H13zM16 27h2v1H16zM19 27h1v1H19zM21 27h1v1H21zM23 27h1v1H23zM25 27h1v1H25zM28 27h1v1H28zM30 27h1v1H30zM32 27h2v1H32zM35 27h1v1H35zM0 28h4v1H0zM5 28h8v1H5zM15 28h2v1H15zM19 28h3v1H19zM24 28h1v1H24zM27 28h6v1H27zM34 28h2v1H34zM8 29h2v1H8zM13 29h1v1H13zM15 29h3v1H15zM19 29h1v1H19zM23 29h2v1H23zM26 29h3v1H26zM32 29h1v1H32zM35,29 h2v1H35zM0 30h7v1H0zM8 30h2v1H8zM14 30h2v1H14zM17 30h1v1H17zM19 30h1v1H19zM21 30h1v1H21zM25 30h1v1H25zM27 30h2v1H27zM30 30h1v1H30zM32 30h1v1H32zM34,30 h3v1H34zM0 31h1v1H0zM6 31h1v1H6zM8 31h1v1H8zM10 31h1v1H10zM12 31h1v1H12zM14 31h2v1H14zM17 31h1v1H17zM19 31h2v1H19zM22 31h1v1H22zM24 31h1v1H24zM26 31h1v1H26zM28 31h1v1H28zM32 31h1v1H32zM34 31h1v1H34zM0 32h1v1H0zM2 32h3v1H2zM6 32h1v1H6zM9 32h1v1H9zM11 32h1v1H11zM14 32h2v1H14zM17 32h4v1H17zM24 32h3v1H24zM28 32h6v1H28zM0 33h1v1H0zM2 33h3v1H2zM6 33h1v1H6zM8 33h1v1H8zM11 33h2v1H11zM16 33h2v1H16zM19 33h1v1H19zM23 33h4v1H23zM28 33h2v1H28zM32 33h1v1H32zM34 33h1v1H34zM36,33 h1v1H36zM0 34h1v1H0zM2 34h3v1H2zM6 34h1v1H6zM9 34h1v1H9zM11 34h3v1H11zM15 34h1v1H15zM17 34h3v1H17zM21 34h5v1H21zM27 34h3v1H27zM32 34h3v1H32zM36,34 h1v1H36zM0 35h1v1H0zM6 35h1v1H6zM8 35h2v1H8zM11 35h1v1H11zM13 35h9v1H13zM23 35h3v1H23zM27 35h3v1H27zM0 36h7v1H0zM9 36h1v1H9zM11 36h2v1H11zM20 36h2v1H20zM23 36h1v1H23zM25 36h1v1H25zM28 36h1v1H28zM30 36h1v1H30zM32 36h1v1H32zM35,36 h2v1H35z" shape-rendering="crispEdges"/></svg>