<svg xmlns="http://www.w3.org/2000/svg" height="100" width="100" viewBox="0 0 29 29" id="qr-code-svg"><path fill="#ffffff" d="M0,0 h29v29H0z" shape-rendering="crispEdges"/><path fill="#000000" d="M0 0h7v1H0zM13 0h1v1H13zM15 0h1v1H15zM17 0h2v1H17zM20 0h1v1H20zM22,0 h7v1H22zM0 1h1v1H0zM6 1h1v1H6zM8 1h13v1H8zM22 1h1v1H22zM28,1 h1v1H28zM0 2h1v1H0zM2 2h3v1H2zM6 2h1v1H6zM9 2h1v1H9zM14 2h1v1H14zM19 2h2v1H19zM22 2h1v1H22zM24 2h3v1H24zM28,2 h1v1H28zM0 3h1v1H0zM2 3h3v1H2zM6 3h1v1H6zM8 3h2v1H8zM11 3h4v1H11zM17 3h1v1H17zM19 3h1v1H19zM22 3h1v1H22zM24 3h3v1H24zM28,3 h1v1H28zM0 4h1v1H0zM2 4h3v1H2zM6 4h1v1H6zM8 4h2v1H8zM16 4h1v1H16zM18 4h2v1H18zM22 4h1v1H22zM24 4h3v1H24zM28,4 h1v1H28zM0 5h1v1H0zM6 5h1v1H6zM9 5h1v1H9zM11 5h1v1H11zM13 5h1v1H13zM15 5h1v1H15zM20 5h1v1H20zM22 5h1v1H22zM28,5 h1v1H28zM0 6h7v1H0zM8 6h1v1H8zM10 6h1v1H10zM12 6h1v1H12zM14 6h1v1H14zM16 6h1v1H16zM18 6h1v1H18zM20 6h1v1H20zM22,6 h7v1H22zM8 7h1v1H8zM13 7h2v1H13zM18 7h3v1H18zM1 8h1v1H1zM3 8h4v1H3zM8 8h1v1H8zM11 8h1v1H11zM17 8h1v1H17zM19 8h1v1H19zM21 8h2v1H21zM24 8h2v1H24zM27 8h1v1H27zM0 9h1v1H0zM2 9h1v1H2zM5 9h1v1H5zM7 9h2v1H7zM11 9h1v1H11zM13 9h4v1H13zM18 9h2v1H18zM23 9h2v1H23zM26 9h2v1H26zM1 10h1v1H1zM3 10h1v1H3zM6 10h3v1H6zM10 10h5v1H10zM17 10h2v1H17zM21 10h3v1H21zM0 11h2v1H0zM3 11h2v1H3zM8 11h2v1H8zM12 11h1v1H12zM14 11h4v1H14zM20 11h1v1H20zM24 11h2v1H24zM28,11 h1v1H28zM2 12h7v1H2zM10 12h1v1H10zM12 12h2v1H12zM15 12h1v1H15zM18 12h5v1H18zM25 12h1v1H25zM27 12h1v1H27zM2 13h2v1H2zM5 13h1v1H5zM9 13h1v1H9zM11 13h1v1H11zM14 13h2v1H14zM18 13h1v1H18zM22 13h1v1H22zM24 13h1v1H24zM26,13 h3v1H26zM1 14h2v1H1zM4 14h3v1H4zM9 14h1v1H9zM15 14h1v1H15zM18 14h3v1H18zM22 14h2v1H22zM25 14h1v1H25zM28,14 h1v1H28zM1 15h5v1H1zM9 15h1v1H9zM11 15h1v1H11zM13 15h1v1H13zM15 15h2v1H15zM19 15h4v1H19zM24 15h3v1H24zM28,15 h1v1H28zM1 16h1v1H1zM5 16h2v1H5zM8 16h3v1H8zM12 16h1v1H12zM14 16h2v1H14zM19 16h2v1H19zM25 16h1v1H25zM0 17h1v1H0zM3 17h3v1H3zM8 17h3v1H8zM14 17h1v1H14zM16 17h1v1H16zM19 17h3v1H19zM24 17h1v1H24zM0 18h2v1H0zM3 18h4v1H3zM10 18h1v1H10zM12 18h1v1H12zM14 18h2v1H14zM17 18h1v1H17zM19 18h1v1H19zM23 18h1v1H23zM26 18h1v1H26zM28,18 h1v1H28zM0 19h2v1H0zM3 19h2v1H3zM7 19h1v1H7zM9 19h1v1H9zM11 19h1v1H11zM13 19h1v1H13zM15 19h2v1H15zM20 19h4v1H20zM26 19h1v1H26zM0 20h3v1H0zM4 20h1v1H4zM6 20h1v1H6zM11 20h4v1H11zM16 20h2v1H16zM19,20 h10v1H19zM8 21h2v1H8zM11 21h1v1H11zM14 21h3v1H14zM20 21h1v1H20zM24 21h3v1H24zM0 22h7v1H0zM9 22h4v1H9zM15 22h6v1H15zM22 22h1v1H22zM24 22h1v1H24zM26 22h1v1H26zM0 23h1v1H0zM6 23h1v1H6zM8 23h1v1H8zM10 23h1v1H10zM16 23h5v1H16zM24 23h2v1H24zM27,23 h2v1H27zM0 24h1v1H0zM2 24h3v1H2zM6 24h1v1H6zM8 24h1v1H8zM13 24h2v1H13zM16 24h1v1H16zM19 24h6v1H19zM0 25h1v1H0zM2 25h3v1H2zM6 25h1v1H6zM8 25h4v1H8zM15 25h1v1H15zM23 25h1v1H23zM25 25h2v1H25zM28,25 h1v1H28zM0 26h1v1H0zM2 26h3v1H2zM6 26h1v1H6zM11 26h1v1H11zM13 26h1v1H13zM15 26h2v1H15zM18 26h1v1H18zM20 26h2v1H20zM23,26 h6v1H23zM0 27h1v1H0zM6 27h1v1H6zM8 27h2v1H8zM11 27h1v1H11zM14 27h1v1H14zM16 27h1v1H16zM18 27h1v1H18zM22 27h1v1H22zM24 27h1v1H24zM26 27h1v1H26zM28,27 h1v1H28zM0 28h7v1H0zM9 28h1v1H9zM11 28h2v1H11zM14 28h2v1H14zM19 28h6v1H19z" shape-rendering="crispEdges"/></svg>