<svg xmlns="http://www.w3.org/2000/svg" height="100" width="100" viewBox="0 0 33 33" id="qr-code-svg"><path fill="#ffffff" d="M0,0 h33v33H0z" shape-rendering="crispEdges"/><path fill="#000000" d="M0 0h7v1H0zM8 0h6v1H8zM17 0h4v1H17zM23 0h1v1H23zM26,0 h7v1H26zM0 1h1v1H0zM6 1h1v1H6zM9 1h9v1H9zM22 1h1v1H22zM26 1h1v1H26zM32,1 h1v1H32zM0 2h1v1H0zM2 2h3v1H2zM6 2h1v1H6zM9 2h3v1H9zM13 2h3v1H13zM17 2h3v1H17zM24 2h1v1H24zM26 2h1v1H26zM28 2h3v1H28zM32,2 h1v1H32zM0 3h1v1H0zM2 3h3v1H2zM6 3h1v1H6zM9 3h1v1H9zM13 3h4v1H13zM20 3h3v1H20zM24 3h1v1H24zM26 3h1v1H26zM28 3h3v1H28zM32,3 h1v1H32zM0 4h1v1H0zM2 4h3v1H2zM6 4h1v1H6zM8 4h1v1H8zM10 4h1v1H10zM12 4h2v1H12zM15 4h1v1H15zM18 4h1v1H18zM24 4h1v1H24zM26 4h1v1H26zM28 4h3v1H28zM32,4 h1v1H32zM0 5h1v1H0zM6 5h1v1H6zM8 5h1v1H8zM11 5h4v1H11zM20 5h1v1H20zM22 5h1v1H22zM26 5h1v1H26zM32,5 h1v1H32zM0 6h7v1H0zM8 6h1v1H8zM10 6h1v1H10zM12 6h1v1H12zM14 6h1v1H14zM16 6h1v1H16zM18 6h1v1H18zM20 6h1v1H20zM22 6h1v1H22zM24 6h1v1H24zM26,6 h7v1H26zM10 7h4v1H10zM15 7h1v1H15zM21 7h1v1H21zM23 7h1v1H23zM1 8h7v1H1zM11 8h1v1H11zM14 8h1v1H14zM16 8h2v1H16zM22 8h3v1H22zM27 8h2v1H27zM32,8 h1v1H32zM0 9h1v1H0zM9 9h4v1H9zM16 9h1v1H16zM19 9h5v1H19zM26 9h2v1H26zM29,9 h4v1H29zM0 10h2v1H0zM3 10h1v1H3zM5 10h2v1H5zM8 10h2v1H8zM12 10h2v1H12zM15 10h1v1H15zM18 10h1v1H18zM20 10h2v1H20zM24 10h3v1H24zM28 10h1v1H28zM30 10h2v1H30zM3 11h1v1H3zM5 11h1v1H5zM9 11h1v1H9zM15 11h2v1H15zM20 11h3v1H20zM24 11h1v1H24zM28 11h3v1H28zM32,11 h1v1H32zM4 12h3v1H4zM8 12h2v1H8zM12 12h3v1H12zM16 12h1v1H16zM18 12h2v1H18zM21 12h1v1H21zM24 12h1v1H24zM27 12h3v1H27zM31,12 h2v1H31zM1 13h3v1H1zM5 13h1v1H5zM7 13h3v1H7zM12 13h1v1H12zM16 13h2v1H16zM20 13h5v1H20zM26 13h1v1H26zM29,13 h4v1H29zM2 14h1v1H2zM6 14h1v1H6zM8 14h1v1H8zM10 14h10v1H10zM21 14h2v1H21zM24 14h3v1H24zM31 14h1v1H31zM0 15h2v1H0zM7 15h1v1H7zM9 15h3v1H9zM17 15h1v1H17zM19 15h3v1H19zM24 15h3v1H24zM29 15h2v1H29zM0 16h4v1H0zM5 16h4v1H5zM11 16h1v1H11zM13 16h2v1H13zM16 16h1v1H16zM19 16h1v1H19zM22 16h1v1H22zM25 16h1v1H25zM27 16h2v1H27zM32,16 h1v1H32zM1 17h1v1H1zM3 17h3v1H3zM8 17h2v1H8zM11 17h2v1H11zM15 17h2v1H15zM18 17h2v1H18zM23 17h1v1H23zM26 17h2v1H26zM29 17h2v1H29zM32,17 h1v1H32zM0 18h1v1H0zM2 18h2v1H2zM6 18h1v1H6zM10 18h1v1H10zM18 18h1v1H18zM20 18h1v1H20zM22 18h1v1H22zM25 18h4v1H25zM30 18h1v1H30zM0 19h2v1H0zM3 19h1v1H3zM8 19h1v1H8zM11 19h2v1H11zM14 19h1v1H14zM16 19h3v1H16zM20 19h1v1H20zM26 19h6v1H26zM1 20h3v1H1zM6 20h4v1H6zM11 20h5v1H11zM20 20h4v1H20zM25 20h1v1H25zM27 20h3v1H27zM0 21h1v1H0zM2 21h1v1H2zM5 21h1v1H5zM8 21h3v1H8zM13 21h1v1H13zM16 21h1v1H16zM18 21h1v1H18zM23 21h1v1H23zM26 21h1v1H26zM29 21h2v1H29zM32,21 h1v1H32zM0 22h1v1H0zM2 22h1v1H2zM5 22h2v1H5zM10 22h1v1H10zM12 22h1v1H12zM14 22h1v1H14zM18 22h1v1H18zM20 22h2v1H20zM24 22h3v1H24zM28 22h4v1H28zM0 23h1v1H0zM3 23h1v1H3zM5 23h1v1H5zM7 23h2v1H7zM10 23h2v1H10zM13 23h1v1H13zM15 23h1v1H15zM21 23h1v1H21zM24 23h1v1H24zM27 23h1v1H27zM29 23h2v1H29zM0 24h1v1H0zM2 24h1v1H2zM5 24h3v1H5zM11 24h1v1H11zM13 24h4v1H13zM22 24h1v1H22zM24 24h6v1H24zM31 24h1v1H31zM8 25h2v1H8zM11 25h2v1H11zM14 25h1v1H14zM18 25h4v1H18zM24 25h1v1H24zM28 25h1v1H28zM30 25h1v1H30zM32,25 h1v1H32zM0 26h7v1H0zM8 26h1v1H8zM11 26h1v1H11zM13 26h1v1H13zM15 26h4v1H15zM21 26h1v1H21zM23 26h2v1H23zM26 26h1v1H26zM28 26h1v1H28zM30 26h2v1H30zM0 27h1v1H0zM6 27h1v1H6zM8 27h1v1H8zM13 27h1v1H13zM18 27h2v1H18zM21 27h2v1H21zM24 27h1v1H24zM28 27h3v1H28zM0 28h1v1H0zM2 28h3v1H2zM6 28h1v1H6zM8 28h2v1H8zM11 28h1v1H11zM13 28h1v1H13zM15 28h1v1H15zM18 28h1v1H18zM21 28h1v1H21zM24 28h6v1H24zM31 28h1v1H31zM0 29h1v1H0zM2 29h3v1H2zM6 29h1v1H6zM8 29h4v1H8zM15 29h1v1H15zM17 29h2v1H17zM20 29h6v1H20zM28 29h1v1H28zM30 29h1v1H30zM32,29 h1v1H32zM0 30h1v1H0zM2 30h3v1H2zM6 30h1v1H6zM8 30h1v1H8zM10 30h2v1H10zM13 30h4v1H13zM18 30h2v1H18zM21 30h2v1H21zM24 30h1v1H24zM26 30h2v1H26zM0 31h1v1H0zM6 31h1v1H6zM8 31h1v1H8zM10 31h1v1H10zM12 31h2v1H12zM17 31h1v1H17zM19 31h5v1H19zM28 31h3v1H28zM0 32h7v1H0zM10 32h3v1H10zM15 32h1v1H15zM17 32h1v1H17zM19 32h2v1H19zM22 32h4v1H22zM27 32h1v1H27zM31 32h1v1H31z" shape-rendering="crispEdges"/></svg>