<svg xmlns="http://www.w3.org/2000/svg" height="100" width="100" viewBox="0 0 29 29" id="qr-code-svg"><path fill="#ffffff" d="M0,0 h29v29H0z" shape-rendering="crispEdges"/><path fill="#000000" d="M0 0h7v1H0zM8 0h3v1H8zM16 0h1v1H16zM18 0h2v1H18zM22,0 h7v1H22zM0 1h1v1H0zM6 1h1v1H6zM8 1h3v1H8zM12 1h4v1H12zM17 1h3v1H17zM22 1h1v1H22zM28,1 h1v1H28zM0 2h1v1H0zM2 2h3v1H2zM6 2h1v1H6zM8 2h1v1H8zM11 2h1v1H11zM16 2h1v1H16zM18 2h2v1H18zM22 2h1v1H22zM24 2h3v1H24zM28,2 h1v1H28zM0 3h1v1H0zM2 3h3v1H2zM6 3h1v1H6zM8 3h1v1H8zM11 3h2v1H11zM16 3h1v1H16zM18 3h1v1H18zM22 3h1v1H22zM24 3h3v1H24zM28,3 h1v1H28zM0 4h1v1H0zM2 4h3v1H2zM6 4h1v1H6zM8 4h1v1H8zM10 4h1v1H10zM13 4h1v1H13zM16 4h1v1H16zM18 4h2v1H18zM22 4h1v1H22zM24 4h3v1H24zM28,4 h1v1H28zM0 5h1v1H0zM6 5h1v1H6zM9 5h4v1H9zM15 5h1v1H15zM17 5h1v1H17zM19 5h2v1H19zM22 5h1v1H22zM28,5 h1v1H28zM0 6h7v1H0zM8 6h1v1H8zM10 6h1v1H10zM12 6h1v1H12zM14 6h1v1H14zM16 6h1v1H16zM18 6h1v1H18zM20 6h1v1H20zM22,6 h7v1H22zM8 7h4v1H8zM13 7h1v1H13zM16 7h3v1H16zM20 7h1v1H20zM1 8h2v1H1zM4 8h1v1H4zM6 8h2v1H6zM9 8h4v1H9zM16 8h2v1H16zM19 8h2v1H19zM22 8h1v1H22zM24,8 h5v1H24zM2 9h2v1H2zM8 9h1v1H8zM11 9h3v1H11zM17 9h2v1H17zM22 9h1v1H22zM28,9 h1v1H28zM0 10h1v1H0zM2 10h2v1H2zM5 10h3v1H5zM10 10h2v1H10zM13 10h3v1H13zM20 10h1v1H20zM23,10 h6v1H23zM0 11h1v1H0zM3 11h1v1H3zM7 11h1v1H7zM10 11h3v1H10zM17 11h6v1H17zM27 11h1v1H27zM4 12h3v1H4zM8 12h2v1H8zM14 12h7v1H14zM22 12h2v1H22zM25 12h1v1H25zM0 13h2v1H0zM3 13h1v1H3zM5 13h1v1H5zM12 13h1v1H12zM17 13h1v1H17zM20 13h4v1H20zM28,13 h1v1H28zM1 14h1v1H1zM3 14h1v1H3zM6 14h1v1H6zM10 14h1v1H10zM12 14h2v1H12zM16 14h1v1H16zM18 14h1v1H18zM22 14h2v1H22zM26,14 h3v1H26zM1 15h2v1H1zM4 15h1v1H4zM7 15h4v1H7zM15 15h3v1H15zM21 15h3v1H21zM0 16h1v1H0zM3 16h1v1H3zM6 16h2v1H6zM10 16h3v1H10zM15 16h3v1H15zM20 16h3v1H20zM25 16h1v1H25zM1 17h1v1H1zM7 17h2v1H7zM10 17h2v1H10zM14 17h3v1H14zM18 17h1v1H18zM20 17h3v1H20zM25 17h1v1H25zM27,17 h2v1H27zM0 18h1v1H0zM2 18h2v1H2zM5 18h2v1H5zM10 18h2v1H10zM14 18h3v1H14zM21 18h1v1H21zM25 18h1v1H25zM27,18 h2v1H27zM1 19h1v1H1zM4 19h2v1H4zM8 19h1v1H8zM14 19h1v1H14zM16 19h5v1H16zM22 19h1v1H22zM25 19h1v1H25zM28,19 h1v1H28zM0 20h1v1H0zM2 20h1v1H2zM5 20h2v1H5zM9 20h1v1H9zM11 20h1v1H11zM14 20h4v1H14zM20 20h5v1H20zM27 20h1v1H27zM8 21h2v1H8zM11 21h1v1H11zM13 21h1v1H13zM16 21h2v1H16zM19 21h2v1H19zM24 21h1v1H24zM27,21 h2v1H27zM0 22h7v1H0zM8 22h1v1H8zM11 22h1v1H11zM18 22h3v1H18zM22 22h1v1H22zM24 22h1v1H24zM26,22 h3v1H26zM0 23h1v1H0zM6 23h1v1H6zM9 23h1v1H9zM11 23h1v1H11zM14 23h4v1H14zM20 23h1v1H20zM24 23h1v1H24zM27,23 h2v1H27zM0 24h1v1H0zM2 24h3v1H2zM6 24h1v1H6zM8 24h1v1H8zM11 24h4v1H11zM16 24h3v1H16zM20 24h6v1H20zM27 24h1v1H27zM0 25h1v1H0zM2 25h3v1H2zM6 25h1v1H6zM12 25h2v1H12zM15 25h1v1H15zM17 25h1v1H17zM20 25h2v1H20zM24 25h1v1H24zM26 25h1v1H26zM0 26h1v1H0zM2 26h3v1H2zM6 26h1v1H6zM8 26h1v1H8zM10 26h3v1H10zM14 26h1v1H14zM17 26h1v1H17zM19 26h1v1H19zM23 26h2v1H23zM28,26 h1v1H28zM0 27h1v1H0zM6 27h1v1H6zM8 27h2v1H8zM12 27h2v1H12zM16 27h6v1H16zM23 27h1v1H23zM27 27h1v1H27zM0 28h7v1H0zM10 28h8v1H10zM19 28h3v1H19zM24 28h2v1H24zM27,28 h2v1H27z" shape-rendering="crispEdges"/></svg>